<?xml version="1.0" encoding="UTF-8" standalone="no"?>
<svg
   width="18"
   height="18"
   viewBox="0 0 18 18"
   fill="none"
   version="1.1"
   id="svg6"
   sodipodi:docname="arrow-up-right.svg"
   inkscape:version="1.2.2 (b0a84865, 2022-12-01)"
   xmlns:inkscape="http://www.inkscape.org/namespaces/inkscape"
   xmlns:sodipodi="http://sodipodi.sourceforge.net/DTD/sodipodi-0.dtd"
   xmlns="http://www.w3.org/2000/svg"
   xmlns:svg="http://www.w3.org/2000/svg">
  <defs
     id="defs10" />
  <sodipodi:namedview
     id="namedview8"
     pagecolor="#ffffff"
     bordercolor="#000000"
     borderopacity="0.25"
     inkscape:showpageshadow="2"
     inkscape:pageopacity="0.0"
     inkscape:pagecheckerboard="0"
     inkscape:deskcolor="#d1d1d1"
     showgrid="false"
     inkscape:zoom="13.111111"
     inkscape:cx="9"
     inkscape:cy="9"
     inkscape:window-width="1309"
     inkscape:window-height="456"
     inkscape:window-x="0"
     inkscape:window-y="38"
     inkscape:window-maximized="0"
     inkscape:current-layer="svg6" />
  <path
     style="color:#000000;fill:#050505;stroke-linecap:round;stroke-linejoin:round;-inkscape-stroke:none"
     d="m 12.75,4.5 a 0.75,0.75 0 0 0 -0.53125,0.21875 l -7.5,7.5 a 0.75,0.75 0 0 0 0,1.0625 0.75,0.75 0 0 0 1.0625,0 l 7.5,-7.5 a 0.75,0.75 0 0 0 0,-1.0625 A 0.75,0.75 0 0 0 12.75,4.5 Z"
     id="path2" />
  <path
     style="color:#000000;fill:#050505;stroke-linecap:round;stroke-linejoin:round;-inkscape-stroke:none"
     d="M 5.25,4.5 A 0.75,0.75 0 0 0 4.5,5.25 0.75,0.75 0 0 0 5.25,6 H 12 v 6.75 a 0.75,0.75 0 0 0 0.75,0.75 0.75,0.75 0 0 0 0.75,-0.75 V 5.25 A 0.750075,0.750075 0 0 0 12.75,4.5 Z"
     id="path4" />
</svg>
