<?xml version="1.0" encoding="UTF-8" standalone="no"?>
<svg
   width="16"
   height="16"
   viewBox="0 0 16 16"
   fill="none"
   version="1.1"
   id="svg4"
   sodipodi:docname="heart.svg"
   inkscape:version="1.2.2 (b0a84865, 2022-12-01)"
   xmlns:inkscape="http://www.inkscape.org/namespaces/inkscape"
   xmlns:sodipodi="http://sodipodi.sourceforge.net/DTD/sodipodi-0.dtd"
   xmlns="http://www.w3.org/2000/svg"
   xmlns:svg="http://www.w3.org/2000/svg">
  <defs
     id="defs8" />
  <sodipodi:namedview
     id="namedview6"
     pagecolor="#ffffff"
     bordercolor="#000000"
     borderopacity="0.25"
     inkscape:showpageshadow="2"
     inkscape:pageopacity="0.0"
     inkscape:pagecheckerboard="0"
     inkscape:deskcolor="#d1d1d1"
     showgrid="false"
     inkscape:zoom="14.75"
     inkscape:cx="8"
     inkscape:cy="8"
     inkscape:window-width="1309"
     inkscape:window-height="456"
     inkscape:window-x="0"
     inkscape:window-y="38"
     inkscape:window-maximized="0"
     inkscape:current-layer="svg4" />
  <path
     style="color:#000000;fill:#050505;stroke-linecap:round;stroke-linejoin:round;-inkscape-stroke:none"
     d="m 11.298828,1.3476562 c -0.567062,0 -1.128474,0.1130292 -1.6523436,0.3300782 C 9.1226369,1.8947867 8.6469542,2.2122207 8.2460938,2.6132813 L 8,2.8613281 7.7519531,2.6132813 C 6.942433,1.8037611 5.8440488,1.3496094 4.6992187,1.3496094 c -1.14483,0 -2.243222,0.4541478 -3.0527343,1.2636719 -0.80951194,0.8095119 -1.2636719,1.9079043 -1.2636719,3.0527343 0,1.14483 0.45415996,2.2432225 1.2636719,3.0527344 l 0.7070312,0.7070313 5.1875,5.1874997 a 0.65006498,0.65006498 0 0 0 0.9179688,0 L 13.646484,9.4257813 14.353516,8.71875 c 0.400932,-0.4008147 0.718451,-0.8765236 0.935547,-1.4003906 0.216948,-0.5237962 0.328124,-1.085306 0.328125,-1.6523438 0,-0.5670377 -0.111177,-1.1285475 -0.328125,-1.6523437 C 15.071967,3.4898049 14.754448,3.0140959 14.353516,2.6132813 13.952651,2.2122162 13.475052,1.8947855 12.951172,1.6777344 12.427313,1.4606803 11.865808,1.3476563 11.298828,1.3476562 Z M 4.6992187,2.6484375 c 0.8005481,0 1.5686872,0.3186871 2.1347657,0.8847656 l 0.7070312,0.7070313 a 0.65006498,0.65006498 0 0 0 0.9179688,0 L 9.1660156,3.5332031 C 9.4461545,3.2529243 9.7784396,3.0305936 10.144531,2.8789063 10.5107,2.7271956 10.902491,2.6484375 11.298828,2.6484375 c 0.39622,0 0.79011,0.078763 1.15625,0.2304688 0.366119,0.1516884 0.698381,0.3740225 0.978516,0.6542968 0.280267,0.2801847 0.502593,0.6124435 0.654297,0.9785156 0.151651,0.366143 0.230468,0.7580157 0.230468,1.1542969 0,0.3962813 -0.07882,0.788154 -0.230468,1.1542969 -0.151704,0.3660721 -0.37403,0.7002841 -0.654297,0.9804687 L 12.726563,8.5058594 8,13.234375 3.2734375,8.5058594 2.5664063,7.8007812 C 2.0003395,7.2347145 1.6816406,6.4665637 1.6816406,5.6660156 c 0,-0.800548 0.3186989,-1.5667458 0.8847657,-2.1328125 C 3.1324726,2.9671286 3.8986707,2.6484375 4.6992187,2.6484375 Z"
     id="path2" />
</svg>
