<svg aria-hidden="true" style="position: absolute; width: 0; height: 0; overflow: hidden;" version="1.1"
  xmlns="http://www.w3.org/2000/svg" xmlns:xlink="http://www.w3.org/1999/xlink">
  <defs>
    <symbol id="icon-arrow-drop-down" viewBox="0 0 18 18">
      <path d="M4.5 6.75L9 11.25L13.5 6.75"/>
    </symbol>
    <symbol id="icon-arrow-up-right" viewBox="0 0 32 32">
      <path
        d="M22.667 8c-0.001 0-0.002 0-0.003 0-0.367 0-0.7 0.149-0.941 0.389l-13.333 13.333c-0.242 0.241-0.392 0.575-0.392 0.944s0.15 0.703 0.392 0.944l0 0c0.241 0.242 0.575 0.392 0.944 0.392s0.703-0.15 0.944-0.392l13.333-13.333c0.242-0.241 0.392-0.575 0.392-0.944s-0.15-0.703-0.392-0.944l-0-0c-0.241-0.24-0.574-0.389-0.941-0.389-0.001 0-0.002 0-0.003 0h0z">
      </path>
      <path
        d="M9.333 8c-0.736 0-1.333 0.597-1.333 1.333v0c0 0.736 0.597 1.333 1.333 1.333v0h12v12c0 0.736 0.597 1.333 1.333 1.333v0c0.736 0 1.333-0.597 1.333-1.333v0-13.333c-0-0.736-0.597-1.333-1.333-1.333v0z">
      </path>
    </symbol>
    <symbol id="icon-burger-bar" viewBox="0 0 28 28" >
      <path d="M24.5 11.6665H3.5"/>
      <path d="M24.5 7H3.5"/>
      <path d="M24.5 16.3335H3.5"/>
      <path d="M24.5 21H3.5"/>
    </symbol>
    <symbol id="icon-close" viewBox="0 0 28 28">
      <path d="M18 6L6 18"/>
      <path d="M6 6L18 18"/>
    </symbol>
    <symbol id="icon-clear" viewBox="0 0 16 16">
      <path d="M12 4L4 12"/>
      <path d="M4 4L12 12"/>
    </symbol>
    <symbol id="icon-eye-closed" viewBox="0 0 20 20">
      <path d="M14.9499 14.9499C13.5254 16.0358 11.7908 16.6373 9.99992 16.6666C4.16659 16.6666 0.833252 9.99994 0.833252 9.99994C1.86983 8.06819 3.30753 6.38045 5.04992 5.04994M8.24992 3.53327C8.82353 3.39901 9.41081 3.33189 9.99992 3.33327C15.8333 3.33327 19.1666 9.99994 19.1666 9.99994C18.6607 10.9463 18.0575 11.8372 17.3666 12.6583M11.7666 11.7666C11.5377 12.0122 11.2617 12.2092 10.955 12.3459C10.6484 12.4825 10.3173 12.556 9.98166 12.5619C9.64599 12.5678 9.31256 12.5061 9.00126 12.3803C8.68997 12.2546 8.40719 12.0675 8.16979 11.8301C7.9324 11.5927 7.74525 11.3099 7.61951 10.9986C7.49377 10.6873 7.43202 10.3539 7.43795 10.0182C7.44387 9.68252 7.51734 9.35148 7.65398 9.04481C7.79062 8.73815 7.98763 8.46215 8.23325 8.23327"/>
      <path d="M0.833252 0.833252L19.1666 19.1666"/>
    </symbol>
    <symbol id="icon-eye-open" viewBox="0 0 20 20" >
      <path d="M0.833008 10.0002C0.833008 10.0002 4.16634 3.3335 9.99968 3.3335C15.833 3.3335 19.1663 10.0002 19.1663 10.0002C19.1663 10.0002 15.833 16.6668 9.99968 16.6668C4.16634 16.6668 0.833008 10.0002 0.833008 10.0002Z"/>
      <path d="M10 12.5C11.3807 12.5 12.5 11.3807 12.5 10C12.5 8.61929 11.3807 7.5 10 7.5C8.61929 7.5 7.5 8.61929 7.5 10C7.5 11.3807 8.61929 12.5 10 12.5Z"/>
    </symbol>
    <symbol id="icon-heart" viewBox="0 0 32 32">
      <path
        d="M22.598 2.695c-1.134 0-2.257 0.226-3.305 0.66s-1.999 1.069-2.801 1.871l-0.492 0.496-0.496-0.496c-1.619-1.619-3.816-2.527-6.105-2.527s-4.486 0.908-6.105 2.527c-1.619 1.619-2.527 3.816-2.527 6.105s0.908 4.486 2.527 6.105l11.789 11.789c0.235 0.234 0.56 0.379 0.918 0.379s0.683-0.145 0.918-0.379l11.789-11.789c0.802-0.802 1.437-1.753 1.871-2.801s0.656-2.171 0.656-3.305-0.222-2.257-0.656-3.305c-0.434-1.048-1.069-1.999-1.871-2.801s-1.757-1.437-2.805-1.871c-1.048-0.434-2.171-0.66-3.305-0.66zM9.398 5.297c1.601 0 3.137 0.637 4.27 1.77l1.414 1.414c0.235 0.234 0.56 0.379 0.918 0.379s0.683-0.145 0.918-0.379l1.414-1.414c0.56-0.561 1.225-1.005 1.957-1.309s1.516-0.461 2.309-0.461c0.792 0 1.58 0.158 2.313 0.461s1.397 0.748 1.957 1.309c0.561 0.56 1.005 1.225 1.309 1.957s0.461 1.516 0.461 2.309-0.158 1.576-0.461 2.309c-0.303 0.732-0.748 1.401-1.309 1.961l-1.414 1.41-9.453 9.457-10.867-10.867c-1.132-1.132-1.77-2.668-1.77-4.27s0.637-3.133 1.77-4.266c1.132-1.132 2.665-1.77 4.266-1.77z">
      </path>
    </symbol>
    <symbol id="icon-trash" viewBox="0 0 32 32">
      <path
        d="M12 2.667c-0.736 0-1.333 0.597-1.333 1.333v0c0 0.736 0.597 1.333 1.333 1.333v0h8c0.736 0 1.333-0.597 1.333-1.333v0c0-0.736-0.597-1.333-1.333-1.333v0z">
      </path>
      <path
        d="M4 6.667c-0.736 0-1.333 0.597-1.333 1.333v0c0 0.736 0.597 1.333 1.333 1.333v0h1.42l0.851 12.781c0.14 2.104 0.162 3.34 0.837 4.524 0.533 0.936 1.339 1.69 2.309 2.16 1.227 0.594 2.46 0.535 4.569 0.535h4.028c2.109 0 3.343 0.060 4.569-0.535 0.97-0.47 1.776-1.224 2.309-2.16 0.675-1.185 0.697-2.42 0.837-4.524l0.851-12.781h1.42c0.736 0 1.333-0.597 1.333-1.333v0c0-0.736-0.597-1.333-1.333-1.333v0zM8.090 9.333h15.819l-0.84 12.604c-0.14 2.104-0.259 2.971-0.493 3.382-0.267 0.468-0.671 0.845-1.156 1.080-0.425 0.206-1.297 0.267-3.406 0.267h-4.028c-2.109 0-2.981-0.061-3.406-0.267-0.485-0.235-0.889-0.612-1.156-1.080-0.234-0.411-0.353-1.278-0.493-3.382z">
      </path>
    </symbol>
    <symbol id="icon-arrow-back" viewBox="0 0 16 16">
      <path d="M12.7136 8.00058L3.28549 7.99956"/>
      <path d="M7.99902 12.7141L3.28549 7.99956L8.00004 3.28602"/>
    </symbol>
    <symbol id="icon-plus" viewBox="0 0 32 32">
      <path d="M17 6.667v18.667"></path>
      <path d="M7.668 16h18.667"></path>
    </symbol>
    <symbol id="icon-instagram" viewBox="0 0 20 20">
      <path
        d="M17.9485 6.72248C17.9387 6.051 17.8143 5.38485 17.5762 4.75685C17.1595 3.68444 16.311 2.83646 15.2368 2.42133C14.6157 2.18805 13.9591 2.06298 13.2945 2.04879C12.4398 2.01064 12.1688 2 9.99911 2C7.82941 2 7.55131 2 6.7028 2.04879C6.03909 2.06298 5.3825 2.18805 4.76144 2.42133C3.68725 2.83646 2.83785 3.68444 2.42203 4.75685C2.18836 5.37687 2.06219 6.03238 2.04976 6.69498C2.01155 7.54917 2 7.81972 2 9.98581C2 12.1519 2 12.4287 2.04976 13.2766C2.06308 13.9401 2.18836 14.5947 2.42203 15.2165C2.83874 16.2881 3.68725 17.136 4.76233 17.5512C5.38072 17.7924 6.03732 17.929 6.70369 17.9503C7.55931 17.9885 7.8303 18 10 18C12.1697 18 12.4478 18 13.2963 17.9503C13.96 17.937 14.6166 17.812 15.2386 17.5787C16.3127 17.1627 17.1613 16.3147 17.578 15.2432C17.8116 14.6222 17.9369 13.9676 17.9502 13.3033C17.9884 12.4499 18 12.1794 18 10.0124C17.9982 7.84633 17.9982 7.57135 17.9485 6.72248ZM9.99378 14.0821C7.72457 14.0821 5.88627 12.2468 5.88627 9.98137C5.88627 7.71593 7.72457 5.8807 9.99378 5.8807C12.2612 5.8807 14.1013 7.71593 14.1013 9.98137C14.1013 12.2468 12.2612 14.0821 9.99378 14.0821ZM14.2648 6.68522C13.7343 6.68522 13.307 6.25768 13.307 5.72902C13.307 5.20036 13.7343 4.77281 14.2648 4.77281C14.7934 4.77281 15.2217 5.20036 15.2217 5.72902C15.2217 6.25768 14.7934 6.68522 14.2648 6.68522Z"/>
      <path
        d="M9.99469 12.485C11.3768 12.485 12.4972 11.3646 12.4972 9.98248C12.4972 8.60039 11.3768 7.47998 9.99469 7.47998C8.61259 7.47998 7.49219 8.60039 7.49219 9.98248C7.49219 11.3646 8.61259 12.485 9.99469 12.485Z"/>
    </symbol>
    <symbol id="icon-youtube" viewBox="0 0 20 20">
      <path
        d="M18.82 5.84762C18.82 5.84762 18.64 4.54762 18.1 3.99048C17.44 3.24762 16.66 3.24762 16.3 3.18571C13.78 3 10 3 10 3C10 3 6.22 3 3.7 3.18571C3.34 3.24762 2.56 3.24762 1.9 3.99048C1.36 4.54762 1.18 5.84762 1.18 5.84762C1.18 5.84762 1 7.33333 1 8.81905V10.181C1 11.6667 1.18 13.2143 1.18 13.2143C1.18 13.2143 1.36 14.5143 1.9 15.0714C2.56 15.8143 3.46 15.8143 3.88 15.8762C5.32 15.9381 10 16 10 16C10 16 13.78 16 16.3 15.8143C16.66 15.7524 17.44 15.7524 18.1 15.0095C18.64 14.4524 18.82 13.1524 18.82 13.1524C18.82 13.1524 19 11.6667 19 10.181V8.81905C19 7.33333 18.82 5.84762 18.82 5.84762ZM8.14 11.9143V6.71429L13 9.31429L8.14 11.9143Z"/>
    </symbol>
    <symbol id="icon-facebook" viewBox="0 0 20 20">
      <path
        d="M12.2 2.9001C12.35 2.9001 12.5 2.9001 12.8 2.9001V5.1501C12.65 5.1501 12.35 5.1501 12.05 5.1501C11.75 5.1501 11.45 5.1501 11.3 5.3001C11.15 5.4501 11.15 5.6001 11.15 5.9501C11.15 6.2501 11.15 6.4501 11.15 6.7501H12.8V8.6501H11.15V16.9001H8.60001V8.6001H7.25V6.7001H8.60001V6.0501C8.60001 4.9501 8.75 4.1501 9.05 3.8001C9.5 3.1501 10.4 2.8501 11.75 2.8501C11.9 2.9001 12.05 2.9001 12.2 2.9001Z"/>
    </symbol>
    <symbol id="icon-quote" viewBox="0 0 39 32">
      <path
        d="M0 32V21.294c0-4 .704-7.686 2.113-11.059S5.909 3.451 9.275 0l6.105 4.824c-1.957 1.961-3.444 3.804-4.462 5.529s-1.683 3.49-1.996 5.294h7.514V32H-.002zm22.896 0V21.294c0-4 .704-7.686 2.113-11.059S28.805 3.451 32.171 0l6.105 4.824c-1.957 1.961-3.444 3.804-4.462 5.529s-1.683 3.49-1.996 5.294h7.514V32H22.894z" />
    </symbol>
    <symbol id="icon-upload" viewBox="0 0 64 64" fill="none">
      <path d="M56.881 22.8571V13.6959C56.8811 12.0825 56.2414 10.5349 55.1023 9.39238C53.9631 8.24982 52.4175 7.60551 50.8041 7.60067L41.643 7.57324M56.881 41.1428V50.2856C56.881 51.9022 56.2389 53.4525 55.0958 54.5956C53.9527 55.7387 52.4024 56.3809 50.7858 56.3809H41.643M23.3572 7.57324L14.1961 7.60372C12.5827 7.60856 11.0371 8.25287 9.89792 9.39543C8.7588 10.538 8.11913 12.0856 8.11914 13.699V22.8571M23.3572 56.3809H14.2144C12.5978 56.3809 11.0475 55.7387 9.90439 54.5956C8.76132 53.4525 8.11914 51.9022 8.11914 50.2856V41.1428" stroke="#050505" stroke-opacity="0.3" stroke-linecap="round" stroke-linejoin="round"/>
      <path d="M32.5 37.5C33.75 37.5 34.8127 37.0627 35.688 36.188C36.5627 35.3127 37 34.25 37 33C37 31.75 36.5627 30.6873 35.688 29.812C34.8127 28.9373 33.75 28.5 32.5 28.5C31.25 28.5 30.1873 28.9373 29.312 29.812C28.4373 30.6873 28 31.75 28 33C28 34.25 28.4373 35.3127 29.312 36.188C30.1873 37.0627 31.25 37.5 32.5 37.5ZM24.5 41C23.95 41 23.4793 40.8043 23.088 40.413C22.696 40.021 22.5 39.55 22.5 39V27C22.5 26.45 22.696 25.9793 23.088 25.588C23.4793 25.196 23.95 25 24.5 25H27.65L29.5 23H35.5L37.35 25H40.5C41.05 25 41.521 25.196 41.913 25.588C42.3043 25.9793 42.5 26.45 42.5 27V39C42.5 39.55 42.3043 40.021 41.913 40.413C41.521 40.8043 41.05 41 40.5 41H24.5Z" fill="#050505" fill-opacity="0.3"/>
    </symbol>
    <symbol id="icon-time-minus" viewBox="0 0 24 24">
      <path d="M5 12H19"/>
    </symbol>
    <symbol id="icon-time-plus" viewBox="0 0 24 24">
      <path d="M12 5V19"/>
      <path d="M5 12H19"/>
    </symbol>
  </defs>
</svg>
