<svg aria-hidden="true" style="position: absolute; width: 0; height: 0; overflow: hidden;" version="1.1" xmlns="http://www.w3.org/2000/svg" xmlns:xlink="http://www.w3.org/1999/xlink">
<defs>
<symbol id="icon-arrow-down" viewBox="0 0 32 32">
<path fill="none" stroke="#fff" style="stroke: var(--color1, #fff)" stroke-linejoin="round" stroke-linecap="round" stroke-miterlimit="4" stroke-width="2.6667" d="M8 12l8 8 8-8"></path>
</symbol>
<symbol id="icon-arrow-drop-down" viewBox="0 0 32 32">
<path stroke-linejoin="round" stroke-linecap="round" stroke-miterlimit="4" stroke-width="3.2" d="M8 12l8 8 8-8"></path>
</symbol>
<symbol id="icon-arrow-filter" viewBox="0 0 32 32">
<path stroke-linejoin="round" stroke-linecap="round" stroke-miterlimit="4" stroke-width="3.2" d="M8 12l8 8 8-8"></path>
</symbol>
<symbol id="icon-arrow-up-right" viewBox="0 0 32 32">
<path d="M22.667 8c-0.001 0-0.002 0-0.003 0-0.367 0-0.7 0.149-0.941 0.389l-13.333 13.333c-0.242 0.241-0.392 0.575-0.392 0.944s0.15 0.703 0.392 0.944l0 0c0.241 0.242 0.575 0.392 0.944 0.392s0.703-0.15 0.944-0.392l13.333-13.333c0.242-0.241 0.392-0.575 0.392-0.944s-0.15-0.703-0.392-0.944l-0-0c-0.241-0.24-0.574-0.389-0.941-0.389-0.001 0-0.002 0-0.003 0h0z"></path>
<path d="M9.333 8c-0.736 0-1.333 0.597-1.333 1.333v0c0 0.736 0.597 1.333 1.333 1.333v0h12v12c0 0.736 0.597 1.333 1.333 1.333v0c0.736 0 1.333-0.597 1.333-1.333v0-13.333c-0-0.736-0.597-1.333-1.333-1.333v0z"></path>
</symbol>
<symbol id="icon-burger-bar" viewBox="0 0 32 32">
<path d="M9.333 8c-0.736 0-1.333 0.597-1.333 1.333v0c0 0.736 0.597 1.333 1.333 1.333v0h12v12c0 0.736 0.597 1.333 1.333 1.333v0c0.736 0 1.333-0.597 1.333-1.333v0-13.333c-0-0.736-0.597-1.333-1.333-1.333v0z"></path>
</symbol>
<symbol id="icon-close-icon" viewBox="0 0 32 32">
<path stroke-linejoin="round" stroke-linecap="round" stroke-miterlimit="4" stroke-width="2.6667" d="M24 8l-16 16"></path>
<path stroke-linejoin="round" stroke-linecap="round" stroke-miterlimit="4" stroke-width="2.6667" d="M8 8l16 16"></path>
</symbol>
<symbol id="icon-eye-closed-icon" viewBox="0 0 32 32">
<path stroke-linejoin="round" stroke-linecap="round" stroke-miterlimit="4" stroke-width="2.88" d="M23.92 23.92c-2.279 1.737-5.055 2.7-7.92 2.747-9.333 0-14.667-10.667-14.667-10.667 1.659-3.091 3.959-5.791 6.747-7.92M13.2 5.653c0.918-0.215 1.857-0.322 2.8-0.32 9.333 0 14.667 10.667 14.667 10.667-0.809 1.514-1.775 2.94-2.88 4.253M18.827 18.827c-0.366 0.393-0.808 0.708-1.299 0.927s-1.020 0.336-1.557 0.346c-0.537 0.009-1.071-0.089-1.569-0.291s-0.95-0.5-1.33-0.88-0.679-0.832-0.88-1.33c-0.201-0.498-0.3-1.032-0.29-1.569s0.127-1.067 0.346-1.557 0.534-0.932 0.927-1.298"></path>
<path stroke-linejoin="round" stroke-linecap="round" stroke-miterlimit="4" stroke-width="2.88" d="M1.333 1.333l29.333 29.333"></path>
</symbol>
<symbol id="icon-eye-open-icon" viewBox="0 0 32 32">
<path stroke-linejoin="round" stroke-linecap="round" stroke-miterlimit="4" stroke-width="2.88" d="M1.333 16c0 0 5.333-10.667 14.667-10.667s14.667 10.667 14.667 10.667-5.333 10.667-14.667 10.667c-9.333 0-14.667-10.667-14.667-10.667z"></path>
<path stroke-linejoin="round" stroke-linecap="round" stroke-miterlimit="4" stroke-width="2.88" d="M16 20c2.209 0 4-1.791 4-4s-1.791-4-4-4c-2.209 0-4 1.791-4 4s1.791 4 4 4z"></path>
</symbol>
<symbol id="icon-facebook" viewBox="0 0 32 32">
<path d="M19.52 4.64c0.24 0 0.48 0 0.96 0v3.6c-0.24 0-0.72 0-1.2 0s-0.96 0-1.2 0.24c-0.24 0.24-0.24 0.48-0.24 1.040 0 0.48 0 0.8 0 1.28h2.64v3.040h-2.64v13.2h-4.080v-13.28h-2.16v-3.040h2.16v-1.040c0-1.76 0.24-3.040 0.72-3.6 0.72-1.040 2.16-1.52 4.32-1.52 0.24 0.080 0.48 0.080 0.72 0.080z"></path>
</symbol>
<symbol id="icon-heart" viewBox="0 0 32 32">
<path d="M22.598 2.695c-1.134 0-2.257 0.226-3.305 0.66s-1.999 1.069-2.801 1.871l-0.492 0.496-0.496-0.496c-1.619-1.619-3.816-2.527-6.105-2.527s-4.486 0.908-6.105 2.527c-1.619 1.619-2.527 3.816-2.527 6.105s0.908 4.486 2.527 6.105l11.789 11.789c0.235 0.234 0.56 0.379 0.918 0.379s0.683-0.145 0.918-0.379l11.789-11.789c0.802-0.802 1.437-1.753 1.871-2.801s0.656-2.171 0.656-3.305-0.222-2.257-0.656-3.305c-0.434-1.048-1.069-1.999-1.871-2.801s-1.757-1.437-2.805-1.871c-1.048-0.434-2.171-0.66-3.305-0.66zM9.398 5.297c1.601 0 3.137 0.637 4.27 1.77l1.414 1.414c0.235 0.234 0.56 0.379 0.918 0.379s0.683-0.145 0.918-0.379l1.414-1.414c0.56-0.561 1.225-1.005 1.957-1.309s1.516-0.461 2.309-0.461c0.792 0 1.58 0.158 2.313 0.461s1.397 0.748 1.957 1.309c0.561 0.56 1.005 1.225 1.309 1.957s0.461 1.516 0.461 2.309-0.158 1.576-0.461 2.309c-0.303 0.732-0.748 1.401-1.309 1.961l-1.414 1.41-9.453 9.457-10.867-10.867c-1.132-1.132-1.77-2.668-1.77-4.27s0.637-3.133 1.77-4.266c1.132-1.132 2.665-1.77 4.266-1.77z"></path>
</symbol>
<symbol id="icon-icons" viewBox="0 0 32 32">
<path d="M22.598 2.695c-1.134 0-2.257 0.226-3.305 0.66s-1.999 1.069-2.801 1.871l-0.492 0.496-0.496-0.496c-1.619-1.619-3.816-2.527-6.105-2.527s-4.486 0.908-6.105 2.527c-1.619 1.619-2.527 3.816-2.527 6.105s0.908 4.486 2.527 6.105l11.789 11.789c0.235 0.234 0.56 0.379 0.918 0.379s0.683-0.145 0.918-0.379l11.789-11.789c0.802-0.802 1.437-1.753 1.871-2.801s0.656-2.171 0.656-3.305-0.222-2.257-0.656-3.305c-0.434-1.048-1.069-1.999-1.871-2.801s-1.757-1.437-2.805-1.871c-1.048-0.434-2.171-0.66-3.305-0.66zM9.398 5.297c1.601 0 3.137 0.637 4.27 1.77l1.414 1.414c0.235 0.234 0.56 0.379 0.918 0.379s0.683-0.145 0.918-0.379l1.414-1.414c0.56-0.561 1.225-1.005 1.957-1.309s1.516-0.461 2.309-0.461c0.792 0 1.58 0.158 2.313 0.461s1.397 0.748 1.957 1.309c0.561 0.56 1.005 1.225 1.309 1.957s0.461 1.516 0.461 2.309-0.158 1.576-0.461 2.309c-0.303 0.732-0.748 1.401-1.309 1.961l-1.414 1.41-9.453 9.457-10.867-10.867c-1.132-1.132-1.77-2.668-1.77-4.27s0.637-3.133 1.77-4.266c1.132-1.132 2.665-1.77 4.266-1.77z"></path>
</symbol>
<symbol id="icon-instagram" viewBox="0 0 32 32">
<path d="M28.718 10.756c-0.016-1.074-0.215-2.14-0.596-3.145-0.667-1.716-2.024-3.073-3.743-3.737-0.994-0.373-2.044-0.573-3.108-0.596-1.368-0.061-1.801-0.078-5.273-0.078s-3.916 0-5.274 0.078c-1.062 0.023-2.112 0.223-3.106 0.596-1.719 0.664-3.078 2.021-3.743 3.737-0.374 0.992-0.576 2.041-0.596 3.101-0.061 1.367-0.080 1.8-0.080 5.265s0 3.909 0.080 5.265c0.021 1.062 0.222 2.109 0.596 3.104 0.667 1.715 2.024 3.071 3.744 3.736 0.989 0.386 2.040 0.604 3.106 0.639 1.369 0.061 1.803 0.080 5.274 0.080s3.916 0 5.274-0.080c1.062-0.021 2.112-0.221 3.108-0.595 1.719-0.666 3.076-2.022 3.743-3.737 0.374-0.994 0.574-2.041 0.596-3.104 0.061-1.365 0.080-1.798 0.080-5.265-0.003-3.466-0.003-3.906-0.082-5.264zM15.99 22.531c-3.631 0-6.572-2.936-6.572-6.561s2.941-6.561 6.572-6.561c3.628 0 6.572 2.936 6.572 6.561s-2.944 6.561-6.572 6.561zM22.824 10.696c-0.849 0-1.532-0.684-1.532-1.53s0.684-1.53 1.532-1.53c0.846 0 1.531 0.684 1.531 1.53s-0.685 1.53-1.531 1.53z"></path>
<path d="M15.992 19.976c2.211 0 4.004-1.793 4.004-4.004s-1.793-4.004-4.004-4.004-4.004 1.793-4.004 4.004c0 2.211 1.793 4.004 4.004 4.004z"></path>
</symbol>
<symbol id="icon-minus" viewBox="0 0 32 32">
<path stroke-linejoin="round" stroke-linecap="round" stroke-miterlimit="4" stroke-width="2" d="M6.667 16h18.667"></path>
</symbol>
<symbol id="icon-plus" viewBox="0 0 32 32">
<path stroke-linejoin="round" stroke-linecap="round" stroke-miterlimit="4" stroke-width="2" d="M16 6.667v18.667"></path>
<path stroke-linejoin="round" stroke-linecap="round" stroke-miterlimit="4" stroke-width="2" d="M6.667 16h18.667"></path>
</symbol>
<symbol id="icon-quote" viewBox="0 0 39 32">
<path d="M0 32v-10.706c0-4 0.704-7.686 2.113-11.059s3.796-6.784 7.162-10.235l6.105 4.824c-1.957 1.961-3.444 3.804-4.462 5.529s-1.683 3.49-1.996 5.294h7.514v16.353h-16.438zM22.896 32v-10.706c0-4 0.704-7.686 2.113-11.059s3.796-6.784 7.162-10.235l6.105 4.824c-1.957 1.961-3.444 3.804-4.462 5.529s-1.683 3.49-1.996 5.294h7.514v16.353h-16.438z"></path>
</symbol>
<symbol id="icon-trash" viewBox="0 0 32 32">
<path d="M12 2.667c-0.736 0-1.333 0.597-1.333 1.333v0c0 0.736 0.597 1.333 1.333 1.333v0h8c0.736 0 1.333-0.597 1.333-1.333v0c0-0.736-0.597-1.333-1.333-1.333v0z"></path>
<path d="M4 6.667c-0.736 0-1.333 0.597-1.333 1.333v0c0 0.736 0.597 1.333 1.333 1.333v0h1.42l0.851 12.781c0.14 2.104 0.162 3.34 0.837 4.524 0.533 0.936 1.339 1.69 2.309 2.16 1.227 0.594 2.46 0.535 4.569 0.535h4.028c2.109 0 3.343 0.060 4.569-0.535 0.97-0.47 1.776-1.224 2.309-2.16 0.675-1.185 0.697-2.42 0.837-4.524l0.851-12.781h1.42c0.736 0 1.333-0.597 1.333-1.333v0c0-0.736-0.597-1.333-1.333-1.333v0zM8.090 9.333h15.819l-0.84 12.604c-0.14 2.104-0.259 2.971-0.493 3.382-0.267 0.468-0.671 0.845-1.156 1.080-0.425 0.206-1.297 0.267-3.406 0.267h-4.028c-2.109 0-2.981-0.061-3.406-0.267-0.485-0.235-0.889-0.612-1.156-1.080-0.234-0.411-0.353-1.278-0.493-3.382z"></path>
</symbol>
<symbol id="icon-trash-light" viewBox="0 0 32 32">
<path stroke-linejoin="round" stroke-linecap="round" stroke-miterlimit="4" stroke-width="2.6" d="M12 4h8"></path>
<path stroke-linejoin="round" stroke-linecap="round" stroke-miterlimit="4" stroke-width="2.6" d="M4 8h24M25.333 8l-0.935 14.026c-0.14 2.104-0.21 3.156-0.665 3.954-0.4 0.702-1.004 1.267-1.731 1.62-0.826 0.4-1.881 0.4-3.99 0.4h-4.025c-2.109 0-3.163 0-3.99-0.4-0.727-0.353-1.331-0.917-1.731-1.62-0.455-0.798-0.525-1.85-0.665-3.954l-0.935-14.026"></path>
</symbol>
<symbol id="icon-x" viewBox="0 0 32 32">
<path fill="none" stroke="#fff" style="stroke: var(--color1, #fff)" stroke-linejoin="round" stroke-linecap="round" stroke-miterlimit="4" stroke-width="2.2857" d="M24 8l-16 16"></path>
<path fill="none" stroke="#fff" style="stroke: var(--color1, #fff)" stroke-linejoin="round" stroke-linecap="round" stroke-miterlimit="4" stroke-width="2.2857" d="M8 8l16 16"></path>
</symbol>
<symbol id="icon-youtube" viewBox="0 0 32 32">
<path d="M30.112 9.356c0 0-0.288-2.080-1.152-2.971-1.056-1.189-2.304-1.189-2.88-1.288-4.032-0.297-10.080-0.297-10.080-0.297s-6.048 0-10.080 0.297c-0.576 0.099-1.824 0.099-2.88 1.288-0.864 0.891-1.152 2.971-1.152 2.971s-0.288 2.377-0.288 4.754v2.179c0 2.377 0.288 4.853 0.288 4.853s0.288 2.080 1.152 2.971c1.056 1.189 2.496 1.189 3.168 1.288 2.304 0.099 9.792 0.198 9.792 0.198s6.048 0 10.080-0.297c0.576-0.099 1.824-0.099 2.88-1.288 0.864-0.891 1.152-2.971 1.152-2.971s0.288-2.377 0.288-4.754v-2.179c0-2.377-0.288-4.754-0.288-4.754zM13.024 19.063v-8.32l7.776 4.16-7.776 4.16z"></path>
</symbol>
</defs>
</svg>
