<?xml version="1.0" encoding="UTF-8" standalone="no"?>
<svg
   width="18"
   height="18"
   viewBox="0 0 18 18"
   fill="none"
   version="1.1"
   id="svg6"
   sodipodi:docname="trash.svg"
   inkscape:version="1.2.2 (b0a84865, 2022-12-01)"
   xmlns:inkscape="http://www.inkscape.org/namespaces/inkscape"
   xmlns:sodipodi="http://sodipodi.sourceforge.net/DTD/sodipodi-0.dtd"
   xmlns="http://www.w3.org/2000/svg"
   xmlns:svg="http://www.w3.org/2000/svg">
  <defs
     id="defs10" />
  <sodipodi:namedview
     id="namedview8"
     pagecolor="#ffffff"
     bordercolor="#000000"
     borderopacity="0.25"
     inkscape:showpageshadow="2"
     inkscape:pageopacity="0.0"
     inkscape:pagecheckerboard="0"
     inkscape:deskcolor="#d1d1d1"
     showgrid="false"
     inkscape:zoom="13.111111"
     inkscape:cx="9"
     inkscape:cy="9"
     inkscape:window-width="1309"
     inkscape:window-height="456"
     inkscape:window-x="0"
     inkscape:window-y="38"
     inkscape:window-maximized="0"
     inkscape:current-layer="svg6" />
  <path
     style="color:#000000;fill:#050505;fill-opacity:0.9;stroke-linecap:round;stroke-linejoin:round;-inkscape-stroke:none"
     d="M 6.75,1.5 A 0.75,0.75 0 0 0 6,2.25 0.75,0.75 0 0 0 6.75,3 h 4.5 A 0.75,0.75 0 0 0 12,2.25 0.75,0.75 0 0 0 11.25,1.5 Z"
     id="path2" />
  <path
     style="color:#000000;fill:#050505;fill-opacity:0.9;stroke-linecap:round;stroke-linejoin:round;-inkscape-stroke:none"
     d="M 2.25,3.75 A 0.75,0.75 0 0 0 1.5,4.5 0.75,0.75 0 0 0 2.25,5.25 h 0.7988281 l 0.4785157,7.189453 c 0.07892,1.183696 0.091112,1.878566 0.4707031,2.544922 0.3000479,0.526564 0.753254,0.950443 1.2988281,1.214844 C 5.9869903,16.533608 6.6808787,16.5 7.8671875,16.5 h 2.2656255 c 1.186298,0 1.880203,0.03365 2.570312,-0.300781 0.545598,-0.264399 0.998766,-0.688302 1.298828,-1.214844 0.379679,-0.666406 0.391805,-1.361243 0.470703,-2.544922 L 14.951172,5.25 H 15.75 A 0.75,0.75 0 0 0 16.5,4.5 0.75,0.75 0 0 0 15.75,3.75 Z m 2.3007812,1.5 h 8.8984378 l -0.472656,7.089844 c -0.0789,1.183718 -0.145624,1.671151 -0.277344,1.902344 -0.150138,0.263457 -0.37759,0.475221 -0.650391,0.607421 C 11.809538,14.965573 11.319111,15 10.132813,15 H 7.8671875 C 6.6808787,15 6.1905956,14.96562 5.9511719,14.849609 5.6783868,14.71741 5.4508929,14.505623 5.3007812,14.242188 5.1690532,14.010945 5.1023576,13.523545 5.0234375,12.339844 Z"
     id="path4" />
</svg>
