<svg aria-hidden="true" style="position: absolute; width: 0; height: 0; overflow: hidden;" version="1.1" xmlns="http://www.w3.org/2000/svg" xmlns:xlink="http://www.w3.org/1999/xlink">
<defs>
<symbol id="icon-arrow-up-right" viewBox="0 0 32 32">
<path d="M22.667 8c-0.001 0-0.002 0-0.003 0-0.367 0-0.7 0.149-0.941 0.389l-13.333 13.333c-0.242 0.241-0.392 0.575-0.392 0.944s0.15 0.703 0.392 0.944l0 0c0.241 0.242 0.575 0.392 0.944 0.392s0.703-0.15 0.944-0.392l13.333-13.333c0.242-0.241 0.392-0.575 0.392-0.944s-0.15-0.703-0.392-0.944l-0-0c-0.241-0.24-0.574-0.389-0.941-0.389-0.001 0-0.002 0-0.003 0h0z"></path>
<path d="M9.333 8c-0.736 0-1.333 0.597-1.333 1.333v0c0 0.736 0.597 1.333 1.333 1.333v0h12v12c0 0.736 0.597 1.333 1.333 1.333v0c0.736 0 1.333-0.597 1.333-1.333v0-13.333c-0-0.736-0.597-1.333-1.333-1.333v0z"></path>
</symbol>
<symbol id="icon-heart" viewBox="0 0 32 32">
<path d="M22.598 2.695c-1.134 0-2.257 0.226-3.305 0.66s-1.999 1.069-2.801 1.871l-0.492 0.496-0.496-0.496c-1.619-1.619-3.816-2.527-6.105-2.527s-4.486 0.908-6.105 2.527c-1.619 1.619-2.527 3.816-2.527 6.105s0.908 4.486 2.527 6.105l11.789 11.789c0.235 0.234 0.56 0.379 0.918 0.379s0.683-0.145 0.918-0.379l11.789-11.789c0.802-0.802 1.437-1.753 1.871-2.801s0.656-2.171 0.656-3.305-0.222-2.257-0.656-3.305c-0.434-1.048-1.069-1.999-1.871-2.801s-1.757-1.437-2.805-1.871c-1.048-0.434-2.171-0.66-3.305-0.66zM9.398 5.297c1.601 0 3.137 0.637 4.27 1.77l1.414 1.414c0.235 0.234 0.56 0.379 0.918 0.379s0.683-0.145 0.918-0.379l1.414-1.414c0.56-0.561 1.225-1.005 1.957-1.309s1.516-0.461 2.309-0.461c0.792 0 1.58 0.158 2.313 0.461s1.397 0.748 1.957 1.309c0.561 0.56 1.005 1.225 1.309 1.957s0.461 1.516 0.461 2.309-0.158 1.576-0.461 2.309c-0.303 0.732-0.748 1.401-1.309 1.961l-1.414 1.41-9.453 9.457-10.867-10.867c-1.132-1.132-1.77-2.668-1.77-4.27s0.637-3.133 1.77-4.266c1.132-1.132 2.665-1.77 4.266-1.77z"></path>
</symbol>
<symbol id="icon-trash" viewBox="0 0 32 32">
<path d="M12 2.667c-0.736 0-1.333 0.597-1.333 1.333v0c0 0.736 0.597 1.333 1.333 1.333v0h8c0.736 0 1.333-0.597 1.333-1.333v0c0-0.736-0.597-1.333-1.333-1.333v0z"></path>
<path d="M4 6.667c-0.736 0-1.333 0.597-1.333 1.333v0c0 0.736 0.597 1.333 1.333 1.333v0h1.42l0.851 12.781c0.14 2.104 0.162 3.34 0.837 4.524 0.533 0.936 1.339 1.69 2.309 2.16 1.227 0.594 2.46 0.535 4.569 0.535h4.028c2.109 0 3.343 0.060 4.569-0.535 0.97-0.47 1.776-1.224 2.309-2.16 0.675-1.185 0.697-2.42 0.837-4.524l0.851-12.781h1.42c0.736 0 1.333-0.597 1.333-1.333v0c0-0.736-0.597-1.333-1.333-1.333v0zM8.090 9.333h15.819l-0.84 12.604c-0.14 2.104-0.259 2.971-0.493 3.382-0.267 0.468-0.671 0.845-1.156 1.080-0.425 0.206-1.297 0.267-3.406 0.267h-4.028c-2.109 0-2.981-0.061-3.406-0.267-0.485-0.235-0.889-0.612-1.156-1.080-0.234-0.411-0.353-1.278-0.493-3.382z"></path>
</symbol>
<symbol id="icon-plus" viewBox="0 0 34 32">
<path  stroke="#fff"  stroke-linejoin="round" stroke-linecap="round" stroke-miterlimit="4" stroke-width="3" d="M17 6.667v18.667"></path>
<path  stroke="#fff"  stroke-linejoin="round" stroke-linecap="round" stroke-miterlimit="4" stroke-width="3" d="M7.668 16h18.667"></path>
</symbol>
</defs>
</svg>
